HIERARCHY
ROOT hip
{
	OFFSET 0.000000 0.000000 0.000000 
	CHANNELS 6 Xposition Yposition Zposition Zrotation Yrotation Xrotation
	JOINT abdomen
	{
		OFFSET 0.000000 20.688101 -0.731520 
		CHANNELS 3 Zrotation Xrotation Yrotation
		JOINT chest
		{
			OFFSET 0.000000 11.704300 -0.487680 
			CHANNELS 3 Zrotation Xrotation Yrotation
			JOINT neck
			{
				OFFSET 0.000000 14.013250 1.361400 
				CHANNELS 3 Zrotation Xrotation Yrotation
				JOINT neck1
				{
					OFFSET 0.000000 5.364170 1.574630 
					CHANNELS 3 Zrotation Xrotation Yrotation
					JOINT head
					{
						OFFSET 0.000000 5.364141 1.574630 
						CHANNELS 3 Zrotation Xrotation Yrotation
						JOINT __jaw
						{
							OFFSET 0.000000 13.604700 -0.502080 
							CHANNELS 3 Zrotation Xrotation Yrotation
							JOINT jaw
							{
								OFFSET 0.000000 -13.499860 2.500710 
								CHANNELS 3 Zrotation Xrotation Yrotation
								JOINT special04
								{
									OFFSET -0.000000 -6.835370 4.375500 
									CHANNELS 3 Zrotation Xrotation Yrotation
									JOINT oris02
									{
										OFFSET 0.000000 1.711150 2.820850 
										CHANNELS 3 Zrotation Xrotation Yrotation
										JOINT oris01
										{
											OFFSET -0.000000 0.972390 0.845650 
											CHANNELS 3 Zrotation Xrotation Yrotation
											End Site
											{
												OFFSET 0.000000 1.162291 0.607091 
											}
										}
									}
									JOINT oris06.l
									{
										OFFSET 0.000000 1.711150 2.820850 
										CHANNELS 3 Zrotation Xrotation Yrotation
										JOINT oris07.l
										{
											OFFSET 1.168850 0.445180 0.506110 
											CHANNELS 3 Zrotation Xrotation Yrotation
											End Site
											{
												OFFSET 0.450611 1.195178 0.204519 
											}
										}
									}
									JOINT oris06.r
									{
										OFFSET 0.000000 1.711150 2.820850 
										CHANNELS 3 Zrotation Xrotation Yrotation
										JOINT oris07.r
										{
											OFFSET -1.168850 0.445180 0.506110 
											CHANNELS 3 Zrotation Xrotation Yrotation
											End Site
											{
												OFFSET -0.450611 1.195173 0.204519 
											}
										}
									}
								}
								JOINT tongue00
								{
									OFFSET -0.000000 -6.835370 4.375500 
									CHANNELS 3 Zrotation Xrotation Yrotation
									JOINT tongue01
									{
										OFFSET 0.000000 3.973650 -3.762340 
										CHANNELS 3 Zrotation Xrotation Yrotation
										JOINT tongue02
										{
											OFFSET 0.000000 0.429760 2.924710 
											CHANNELS 3 Zrotation Xrotation Yrotation
											JOINT tongue03
											{
												OFFSET 0.000000 0.018530 2.059010 
												CHANNELS 3 Zrotation Xrotation Yrotation
												JOINT __tongue04
												{
													OFFSET 0.000000 -0.440240 0.838860 
													CHANNELS 3 Zrotation Xrotation Yrotation
													JOINT tongue04
													{
														OFFSET 0.000000 0.000000 0.000000 
														CHANNELS 3 Zrotation Xrotation Yrotation
														End Site
														{
															OFFSET 0.000000 -0.440230 0.838860 
														}
													}
												}
												JOINT tongue07.l
												{
													OFFSET 0.000000 -0.440240 0.838860 
													CHANNELS 3 Zrotation Xrotation Yrotation
													End Site
													{
														OFFSET 1.160923 -0.331531 0.018227 
													}
												}
												JOINT tongue07.r
												{
													OFFSET 0.000000 -0.440240 0.838860 
													CHANNELS 3 Zrotation Xrotation Yrotation
													End Site
													{
														OFFSET -1.160922 -0.331531 0.018227 
													}
												}
											}
											JOINT tongue06.l
											{
												OFFSET 0.000000 0.018530 2.059010 
												CHANNELS 3 Zrotation Xrotation Yrotation
												End Site
												{
													OFFSET 1.644752 -0.526075 -0.203281 
												}
											}
											JOINT tongue06.r
											{
												OFFSET 0.000000 0.018530 2.059010 
												CHANNELS 3 Zrotation Xrotation Yrotation
												End Site
												{
													OFFSET -1.644752 -0.526075 -0.203282 
												}
											}
										}
										JOINT tongue05.l
										{
											OFFSET 0.000000 0.429760 2.924710 
											CHANNELS 3 Zrotation Xrotation Yrotation
											End Site
											{
												OFFSET 1.971028 -0.388618 0.239206 
											}
										}
										JOINT tongue05.r
										{
											OFFSET 0.000000 0.429760 2.924710 
											CHANNELS 3 Zrotation Xrotation Yrotation
											End Site
											{
												OFFSET -1.971028 -0.388618 0.239205 
											}
										}
									}
								}
							}
						}
						JOINT __levator02.l
						{
							OFFSET 0.000000 13.604700 -0.502080 
							CHANNELS 3 Zrotation Xrotation Yrotation
							JOINT levator02.l
							{
								OFFSET 0.313580 -11.321120 11.599360 
								CHANNELS 3 Zrotation Xrotation Yrotation
								JOINT levator03.l
								{
									OFFSET 1.681690 -1.563730 -1.357570 
									CHANNELS 3 Zrotation Xrotation Yrotation
									JOINT levator04.l
									{
										OFFSET 0.504730 -1.676760 -0.058160 
										CHANNELS 3 Zrotation Xrotation Yrotation
										JOINT levator05.l
										{
											OFFSET 0.145440 -1.643170 -0.225470 
											CHANNELS 3 Zrotation Xrotation Yrotation
											End Site
											{
												OFFSET -0.310116 -0.760198 -0.121474 
											}
										}
									}
								}
							}
						}
						JOINT __levator02.r
						{
							OFFSET 0.000000 13.604700 -0.502080 
							CHANNELS 3 Zrotation Xrotation Yrotation
							JOINT levator02.r
							{
								OFFSET -0.313580 -11.321120 11.599360 
								CHANNELS 3 Zrotation Xrotation Yrotation
								JOINT levator03.r
								{
									OFFSET -1.681690 -1.563740 -1.357570 
									CHANNELS 3 Zrotation Xrotation Yrotation
									JOINT levator04.r
									{
										OFFSET -0.504730 -1.676750 -0.058160 
										CHANNELS 3 Zrotation Xrotation Yrotation
										JOINT levator05.r
										{
											OFFSET -0.145440 -1.643170 -0.225470 
											CHANNELS 3 Zrotation Xrotation Yrotation
											End Site
											{
												OFFSET 0.310116 -0.760193 -0.121474 
											}
										}
									}
								}
							}
						}
						JOINT __special01
						{
							OFFSET 0.000000 13.604700 -0.502080 
							CHANNELS 3 Zrotation Xrotation Yrotation
							JOINT special01
							{
								OFFSET -0.000000 -14.026930 -5.716970 
								CHANNELS 3 Zrotation Xrotation Yrotation
								JOINT oris04.l
								{
									OFFSET -0.000000 -0.492640 17.312620 
									CHANNELS 3 Zrotation Xrotation Yrotation
									JOINT oris03.l
									{
										OFFSET 1.215520 -0.627430 -0.393050 
										CHANNELS 3 Zrotation Xrotation Yrotation
										End Site
										{
											OFFSET 0.288776 -0.560899 -0.149645 
										}
									}
								}
								JOINT oris04.r
								{
									OFFSET -0.000000 -0.492640 17.312620 
									CHANNELS 3 Zrotation Xrotation Yrotation
									JOINT oris03.r
									{
										OFFSET -1.215520 -0.627440 -0.393050 
										CHANNELS 3 Zrotation Xrotation Yrotation
										End Site
										{
											OFFSET -0.288776 -0.560894 -0.149645 
										}
									}
								}
								JOINT oris06
								{
									OFFSET -0.000000 -0.492640 17.312620 
									CHANNELS 3 Zrotation Xrotation Yrotation
									JOINT oris05
									{
										OFFSET -0.000000 -0.486000 0.000950 
										CHANNELS 3 Zrotation Xrotation Yrotation
										End Site
										{
											OFFSET 0.000000 -0.630493 0.197635 
										}
									}
								}
							}
						}
						JOINT __special03
						{
							OFFSET 0.000000 13.604700 -0.502080 
							CHANNELS 3 Zrotation Xrotation Yrotation
							JOINT special03
							{
								OFFSET 0.000000 -13.499860 2.500710 
								CHANNELS 3 Zrotation Xrotation Yrotation
								JOINT __levator06.l
								{
									OFFSET -0.000000 1.035800 10.090229 
									CHANNELS 3 Zrotation Xrotation Yrotation
									JOINT levator06.l
									{
										OFFSET 0.522240 -0.615720 0.045900 
										CHANNELS 3 Zrotation Xrotation Yrotation
										End Site
										{
											OFFSET 1.107505 -0.131898 -2.142227 
										}
									}
								}
								JOINT __levator06.r
								{
									OFFSET -0.000000 1.035800 10.090229 
									CHANNELS 3 Zrotation Xrotation Yrotation
									JOINT levator06.r
									{
										OFFSET -0.522240 -0.615730 0.045900 
										CHANNELS 3 Zrotation Xrotation Yrotation
										End Site
										{
											OFFSET -1.107506 -0.131893 -2.142227 
										}
									}
								}
							}
						}
						JOINT special06.l
						{
							OFFSET 0.000000 13.604700 -0.502080 
							CHANNELS 3 Zrotation Xrotation Yrotation
							JOINT special05.l
							{
								OFFSET 2.108890 0.153870 5.595070 
								CHANNELS 3 Zrotation Xrotation Yrotation
								JOINT eye.l
								{
									OFFSET 0.857170 -10.254801 2.414670 
									CHANNELS 3 Zrotation Xrotation Yrotation
									End Site
									{
										OFFSET 0.111609 0.006490 4.051424 
									}
								}
								JOINT orbicularis03.l
								{
									OFFSET 0.857170 -10.254801 2.414670 
									CHANNELS 3 Zrotation Xrotation Yrotation
									End Site
									{
										OFFSET 0.097789 1.146431 3.788029 
									}
								}
								JOINT orbicularis04.l
								{
									OFFSET 0.857170 -10.254801 2.414670 
									CHANNELS 3 Zrotation Xrotation Yrotation
									End Site
									{
										OFFSET 0.113609 -1.130505 3.863064 
									}
								}
							}
						}
						JOINT special06.r
						{
							OFFSET 0.000000 13.604700 -0.502080 
							CHANNELS 3 Zrotation Xrotation Yrotation
							JOINT special05.r
							{
								OFFSET -2.108890 0.153870 5.595070 
								CHANNELS 3 Zrotation Xrotation Yrotation
								JOINT eye.r
								{
									OFFSET -0.857170 -10.254801 2.414670 
									CHANNELS 3 Zrotation Xrotation Yrotation
									End Site
									{
										OFFSET -0.111609 0.006490 4.051424 
									}
								}
								JOINT orbicularis03.r
								{
									OFFSET -0.857170 -10.254801 2.414670 
									CHANNELS 3 Zrotation Xrotation Yrotation
									End Site
									{
										OFFSET -0.097789 1.146431 3.788029 
									}
								}
								JOINT orbicularis04.r
								{
									OFFSET -0.857170 -10.254801 2.414670 
									CHANNELS 3 Zrotation Xrotation Yrotation
									End Site
									{
										OFFSET -0.113609 -1.130505 3.863064 
									}
								}
							}
						}
						JOINT __temporalis01.l
						{
							OFFSET 0.000000 13.604700 -0.502080 
							CHANNELS 3 Zrotation Xrotation Yrotation
							JOINT temporalis01.l
							{
								OFFSET 6.332510 -9.444281 6.595120 
								CHANNELS 3 Zrotation Xrotation Yrotation
								JOINT oculi02.l
								{
									OFFSET -0.804920 0.053010 1.621140 
									CHANNELS 3 Zrotation Xrotation Yrotation
									JOINT oculi01.l
									{
										OFFSET -2.161570 1.690970 2.142660 
										CHANNELS 3 Zrotation Xrotation Yrotation
										End Site
										{
											OFFSET -1.740622 0.281157 0.647323 
										}
									}
								}
							}
						}
						JOINT __temporalis01.r
						{
							OFFSET 0.000000 13.604700 -0.502080 
							CHANNELS 3 Zrotation Xrotation Yrotation
							JOINT temporalis01.r
							{
								OFFSET -6.332510 -9.444281 6.595120 
								CHANNELS 3 Zrotation Xrotation Yrotation
								JOINT oculi02.r
								{
									OFFSET 0.804920 0.053010 1.621140 
									CHANNELS 3 Zrotation Xrotation Yrotation
									JOINT oculi01.r
									{
										OFFSET 2.161570 1.690970 2.142660 
										CHANNELS 3 Zrotation Xrotation Yrotation
										End Site
										{
											OFFSET 1.740622 0.281157 0.647323 
										}
									}
								}
							}
						}
						JOINT __temporalis02.l
						{
							OFFSET 0.000000 13.604700 -0.502080 
							CHANNELS 3 Zrotation Xrotation Yrotation
							JOINT temporalis02.l
							{
								OFFSET 6.377600 -11.680510 6.235180 
								CHANNELS 3 Zrotation Xrotation Yrotation
								JOINT risorius02.l
								{
									OFFSET -0.814250 0.451130 1.721730 
									CHANNELS 3 Zrotation Xrotation Yrotation
									JOINT risorius03.l
									{
										OFFSET -0.649710 -2.514660 0.612550 
										CHANNELS 3 Zrotation Xrotation Yrotation
										End Site
										{
											OFFSET 0.479556 -1.760402 -1.642659 
										}
									}
								}
							}
						}
						JOINT __temporalis02.r
						{
							OFFSET 0.000000 13.604700 -0.502080 
							CHANNELS 3 Zrotation Xrotation Yrotation
							JOINT temporalis02.r
							{
								OFFSET -6.377600 -11.680510 6.235180 
								CHANNELS 3 Zrotation Xrotation Yrotation
								JOINT risorius02.r
								{
									OFFSET 0.814250 0.451130 1.721730 
									CHANNELS 3 Zrotation Xrotation Yrotation
									JOINT risorius03.r
									{
										OFFSET 0.649710 -2.514660 0.612550 
										CHANNELS 3 Zrotation Xrotation Yrotation
										End Site
										{
											OFFSET -0.479556 -1.760402 -1.642659 
										}
									}
								}
							}
						}
					}
				}
			}
			JOINT rCollar
			{
				OFFSET -2.682240 19.263399 -4.876800 
				CHANNELS 3 Zrotation Xrotation Yrotation
				JOINT rShldr
				{
					OFFSET -8.778240 -1.950730 1.463040 
					CHANNELS 3 Zrotation Xrotation Yrotation
					JOINT rForeArm
					{
						OFFSET -28.174200 -1.711500 0.487680 
						CHANNELS 3 Zrotation Xrotation Yrotation
						JOINT rHand
						{
							OFFSET -22.587900 0.773209 7.071360 
							CHANNELS 3 Zrotation Xrotation Yrotation
							JOINT rThumb1
							{
								OFFSET -1.219200 -0.487915 3.413760 
								CHANNELS 3 Zrotation Xrotation Yrotation
								JOINT rThumb2
								{
									OFFSET -3.370350 -0.524490 3.413760 
									CHANNELS 3 Zrotation Xrotation Yrotation
									End Site
									{
										OFFSET -1.782710 -1.182140 1.430490 
									}
								}
							}
							JOINT rIndex1
							{
								OFFSET -7.759470 0.938293 5.608320 
								CHANNELS 3 Zrotation Xrotation Yrotation
								JOINT rIndex2
								{
									OFFSET -2.540570 -0.884171 1.565380 
									CHANNELS 3 Zrotation Xrotation Yrotation
									End Site
									{
										OFFSET -1.625190 -0.234802 1.165020 
									}
								}
							}
							JOINT rMid1
							{
								OFFSET -8.247140 1.182130 3.413760 
								CHANNELS 3 Zrotation Xrotation Yrotation
								JOINT rMid2
								{
									OFFSET -3.101650 -0.590103 1.064700 
									CHANNELS 3 Zrotation Xrotation Yrotation
									End Site
									{
										OFFSET -2.485470 -0.328903 0.837420 
									}
								}
							}
							JOINT rRing1
							{
								OFFSET -8.828220 0.546677 1.516780 
								CHANNELS 3 Zrotation Xrotation Yrotation
								JOINT rRing2
								{
									OFFSET -2.609340 -0.819778 -0.019849 
									CHANNELS 3 Zrotation Xrotation Yrotation
									End Site
									{
										OFFSET -2.338420 -0.294052 0.168128 
									}
								}
							}
							JOINT rPinky1
							{
								OFFSET -8.272020 -0.047791 -0.458400 
								CHANNELS 3 Zrotation Xrotation Yrotation
								JOINT rPinky2
								{
									OFFSET -1.827340 -0.647385 -0.700984 
									CHANNELS 3 Zrotation Xrotation Yrotation
									End Site
									{
										OFFSET -1.692250 -0.517670 -0.607171 
									}
								}
							}
						}
					}
				}
			}
			JOINT lCollar
			{
				OFFSET 2.682240 19.263399 -4.876800 
				CHANNELS 3 Zrotation Xrotation Yrotation
				JOINT lShldr
				{
					OFFSET 8.778240 -1.950730 1.463040 
					CHANNELS 3 Zrotation Xrotation Yrotation
					JOINT lForeArm
					{
						OFFSET 28.174200 -1.711500 0.487680 
						CHANNELS 3 Zrotation Xrotation Yrotation
						JOINT lHand
						{
							OFFSET 22.587900 0.773209 7.071360 
							CHANNELS 3 Zrotation Xrotation Yrotation
							JOINT lThumb1
							{
								OFFSET 1.219200 -0.487915 3.413760 
								CHANNELS 3 Zrotation Xrotation Yrotation
								JOINT lThumb2
								{
									OFFSET 3.370350 -0.524490 3.413760 
									CHANNELS 3 Zrotation Xrotation Yrotation
									End Site
									{
										OFFSET 1.782710 -1.182140 1.430490 
									}
								}
							}
							JOINT lIndex1
							{
								OFFSET 7.759470 0.938293 5.608320 
								CHANNELS 3 Zrotation Xrotation Yrotation
								JOINT lIndex2
								{
									OFFSET 2.540570 -0.884171 1.565380 
									CHANNELS 3 Zrotation Xrotation Yrotation
									End Site
									{
										OFFSET 1.625190 -0.234802 1.165020 
									}
								}
							}
							JOINT lMid1
							{
								OFFSET 8.247140 1.182130 3.413760 
								CHANNELS 3 Zrotation Xrotation Yrotation
								JOINT lMid2
								{
									OFFSET 3.101650 -0.590103 1.064700 
									CHANNELS 3 Zrotation Xrotation Yrotation
									End Site
									{
										OFFSET 2.485470 -0.328903 0.837420 
									}
								}
							}
							JOINT lRing1
							{
								OFFSET 8.828220 0.546677 1.516780 
								CHANNELS 3 Zrotation Xrotation Yrotation
								JOINT lRing2
								{
									OFFSET 2.609340 -0.819778 -0.019849 
									CHANNELS 3 Zrotation Xrotation Yrotation
									End Site
									{
										OFFSET 2.338420 -0.294052 0.168128 
									}
								}
							}
							JOINT lPinky1
							{
								OFFSET 8.272020 -0.047791 -0.458400 
								CHANNELS 3 Zrotation Xrotation Yrotation
								JOINT lPinky2
								{
									OFFSET 1.827340 -0.647385 -0.700984 
									CHANNELS 3 Zrotation Xrotation Yrotation
									End Site
									{
										OFFSET 1.692250 -0.517670 -0.607171 
									}
								}
							}
						}
					}
				}
			}
		}
	}
	JOINT rButtock
	{
		OFFSET -8.778240 4.350840 1.219200 
		CHANNELS 3 Zrotation Xrotation Yrotation
		JOINT rThigh
		{
			OFFSET 0.000000 -1.706870 -2.194560 
			CHANNELS 3 Zrotation Xrotation Yrotation
			JOINT rShin
			{
				OFFSET 0.000000 -36.819901 0.731520 
				CHANNELS 3 Zrotation Xrotation Yrotation
				JOINT rFoot
				{
					OFFSET 0.731520 -45.110401 -5.120640 
					CHANNELS 3 Zrotation Xrotation Yrotation
					End Site
					{
						OFFSET -1.122100 -3.699640 12.103000 
					}
				}
			}
		}
	}
	JOINT lButtock
	{
		OFFSET 8.778240 4.350840 1.219200 
		CHANNELS 3 Zrotation Xrotation Yrotation
		JOINT lThigh
		{
			OFFSET 0.000000 -1.706870 -2.194560 
			CHANNELS 3 Zrotation Xrotation Yrotation
			JOINT lShin
			{
				OFFSET 0.000000 -36.819901 0.731520 
				CHANNELS 3 Zrotation Xrotation Yrotation
				JOINT lFoot
				{
					OFFSET -0.731520 -45.110401 -5.120640 
					CHANNELS 3 Zrotation Xrotation Yrotation
					End Site
					{
						OFFSET 1.122100 -3.699640 12.103000 
					}
				}
			}
		}
	}
}
MOTION
Frames: 2
Frame Time: 0.040000
0.000000 0.000000 -190.000000 0.000000 0.000000 0.000000 -5.357400 9.389800 -0.457800 -0.010400 -0.012000 0.051400 -8.479300 3.154900 -5.421100 0.000000 0.000000 0.000000 0.000000 0.000000 0.000000 0.000000 0.000000 0.000000 0.000000 0.000000 0.000000 0.000000 0.000000 0.000000 0.000000 0.000000 0.000000 0.000000 0.000000 0.000000 0.000000 0.000000 0.000000 0.000000 0.000000 0.000000 0.000000 0.000000 0.000000 0.000000 0.000000 0.000000 0.000000 0.000000 0.000000 0.000000 0.000000 0.000000 0.000000 0.000000 0.000000 0.000000 0.000000 0.000000 0.000000 0.000000 0.000000 0.000000 0.000000 0.000000 0.000000 0.000000 0.000000 0.000000 0.000000 0.000000 0.000000 0.000000 0.000000 0.000000 0.000000 0.000000 0.000000 0.000000 0.000000 0.000000 0.000000 0.000000 0.000000 0.000000 0.000000 0.000000 0.000000 0.000000 0.000000 0.000000 0.000000 0.000000 0.000000 0.000000 0.000000 0.000000 0.000000 0.000000 0.000000 0.000000 0.000000 0.000000 0.000000 0.000000 0.000000 0.000000 0.000000 0.000000 0.000000 0.000000 0.000000 0.000000 0.000000 0.000000 0.000000 0.000000 0.000000 0.000000 0.000000 0.000000 0.000000 0.000000 0.000000 0.000000 0.000000 0.000000 0.000000 0.000000 0.000000 0.000000 0.000000 0.000000 0.000000 0.000000 0.000000 0.000000 0.000000 0.000000 0.000000 0.000000 0.000000 0.000000 0.000000 0.000000 0.000000 0.000000 0.000000 0.000000 0.000000 0.000000 0.000000 0.000000 0.000000 0.000000 0.000000 0.000000 0.000000 0.000000 0.000000 0.000000 0.000000 0.000000 0.000000 0.000000 0.000000 0.000000 0.000000 0.000000 0.000000 0.000000 0.000000 0.000000 0.000000 0.000000 0.000000 0.000000 0.000000 0.000000 0.000000 0.000000 0.000000 0.000000 0.000000 0.000000 0.000000 0.000000 0.000000 0.000000 0.000000 0.000000 0.000000 0.000000 0.000000 0.000000 0.000000 0.000000 0.000000 0.000000 0.000000 0.000000 0.000000 0.000000 0.000000 0.000000 0.000000 0.000000 0.000000 0.000000 0.000000 0.000000 0.000000 0.000000 0.000000 0.000000 0.000000 0.000000 0.000000 0.000000 0.000000 0.000000 0.000000 0.000000 0.000000 14.079000 1.761400 -9.053400 0.000000 0.000000 0.000000 0.000000 0.000000 0.000000 0.000000 0.000000 0.000000 25.808800 -3.081900 33.999401 -27.842100 -22.297199 59.241798 0.823500 -72.647797 8.312900 0.000000 0.000000 0.000000 0.000000 0.000000 0.000000 0.000000 0.000000 0.000000 0.000000 0.000000 0.000000 0.000000 0.000000 0.000000 0.000000 0.000000 0.000000 0.000000 0.000000 0.000000 0.000000 0.000000 0.000000 0.000000 0.000000 0.000000 0.000000 0.000000 0.000000 0.000000 0.000000 0.000000 -70.175201 16.202000 4.745700 15.927800 -10.576700 -25.973000 -5.853600 1.846300 -7.962600 0.000000 0.000000 0.000000 0.000000 0.000000 0.000000 0.000000 0.000000 0.000000 0.000000 0.000000 0.000000 0.000000 0.000000 0.000000 0.000000 0.000000 0.000000 0.000000 0.000000 0.000000 0.000000 0.000000 0.000000 0.000000 0.000000 0.000000 0.000000 0.000000 0.000000 0.000000 0.000000 0.000000 -0.957500 -6.687900 3.576400 0.454300 11.115900 -3.051300 -1.849000 -9.508400 -8.288000 0.000000 0.000000 0.000000 0.414400 -9.175200 -16.072901 5.689400 22.826500 -0.693700 2.908600 -15.768600 11.622400 
0.000000 0.000000 -190.000000 0.000000 0.000000 0.000000 -5.438500 9.349500 -0.503700 -0.010400 -0.012000 0.051400 -8.411500 3.152800 -5.517800 0.000000 0.000000 0.000000 0.000000 0.000000 0.000000 0.000000 0.000000 0.000000 0.000000 0.000000 0.000000 0.000000 0.000000 0.000000 0.000000 0.000000 0.000000 0.000000 0.000000 0.000000 0.000000 0.000000 0.000000 0.000000 0.000000 0.000000 0.000000 0.000000 0.000000 0.000000 0.000000 0.000000 0.000000 0.000000 0.000000 0.000000 0.000000 0.000000 0.000000 0.000000 0.000000 0.000000 0.000000 0.000000 0.000000 0.000000 0.000000 0.000000 0.000000 0.000000 0.000000 0.000000 0.000000 0.000000 0.000000 0.000000 0.000000 0.000000 0.000000 0.000000 0.000000 0.000000 0.000000 0.000000 0.000000 0.000000 0.000000 0.000000 0.000000 0.000000 0.000000 0.000000 0.000000 0.000000 0.000000 0.000000 0.000000 0.000000 0.000000 0.000000 0.000000 0.000000 0.000000 0.000000 0.000000 0.000000 0.000000 0.000000 0.000000 0.000000 0.000000 0.000000 0.000000 0.000000 0.000000 0.000000 0.000000 0.000000 0.000000 0.000000 0.000000 0.000000 0.000000 0.000000 0.000000 0.000000 0.000000 0.000000 0.000000 0.000000 0.000000 0.000000 0.000000 0.000000 0.000000 0.000000 0.000000 0.000000 0.000000 0.000000 0.000000 0.000000 0.000000 0.000000 0.000000 0.000000 0.000000 0.000000 0.000000 0.000000 0.000000 0.000000 0.000000 0.000000 0.000000 0.000000 0.000000 0.000000 0.000000 0.000000 0.000000 0.000000 0.000000 0.000000 0.000000 0.000000 0.000000 0.000000 0.000000 0.000000 0.000000 0.000000 0.000000 0.000000 0.000000 0.000000 0.000000 0.000000 0.000000 0.000000 0.000000 0.000000 0.000000 0.000000 0.000000 0.000000 0.000000 0.000000 0.000000 0.000000 0.000000 0.000000 0.000000 0.000000 0.000000 0.000000 0.000000 0.000000 0.000000 0.000000 0.000000 0.000000 0.000000 0.000000 0.000000 0.000000 0.000000 0.000000 0.000000 0.000000 0.000000 0.000000 0.000000 0.000000 0.000000 0.000000 0.000000 0.000000 0.000000 0.000000 0.000000 0.000000 0.000000 0.000000 0.000000 0.000000 0.000000 0.000000 0.000000 14.112700 1.773300 -9.635000 0.000000 0.000000 0.000000 0.000000 0.000000 0.000000 0.000000 0.000000 0.000000 25.757601 -5.621900 32.402000 -27.598700 -19.624800 54.709400 0.804100 -77.589600 8.798900 0.000000 0.000000 0.000000 0.000000 0.000000 0.000000 0.000000 0.000000 0.000000 0.000000 0.000000 0.000000 0.000000 0.000000 0.000000 0.000000 0.000000 0.000000 0.000000 0.000000 0.000000 0.000000 0.000000 0.000000 0.000000 0.000000 0.000000 0.000000 0.000000 0.000000 0.000000 0.000000 0.000000 -70.297302 15.713400 4.945700 15.812100 -10.647500 -25.407900 -5.982900 2.066800 -8.116800 0.000000 0.000000 0.000000 0.000000 0.000000 0.000000 0.000000 0.000000 0.000000 0.000000 0.000000 0.000000 0.000000 0.000000 0.000000 0.000000 0.000000 0.000000 0.000000 0.000000 0.000000 0.000000 0.000000 0.000000 0.000000 0.000000 0.000000 0.000000 0.000000 0.000000 0.000000 0.000000 0.000000 -0.976900 -6.873700 3.539600 0.253500 11.338300 -3.050100 -1.846700 -9.490600 -8.372900 0.000000 0.000000 0.000000 0.432100 -9.257200 -16.170099 5.726200 22.601999 -0.670600 2.948300 -15.897300 11.892200 
